# xmcd
#
# Track frame offsets:
#	150
#	16157
#	36382
#
# Disc length: 622 seconds
#
# Revision: 0
# Processed by: cddbd v1.4PL0 Copyright (c) Steve Scherf et al.
# Submitted via: dBpowerAMP V4.0
#
DISCID=1b026c03
DTITLE=Otis Lee Crenshaw and The Black Liars - London, Not Tennessee
DYEAR=1995
DGENRE=Country
TTITLE0=Uncle Muncie
TTITLE1=Trailerland
TTITLE2=Women Call It Stalking
EXTD=
EXTT0=
EXTT1=
EXTT2=
PLAYORDER=
